<mxfile host="app.diagrams.net" modified="2024-07-11T08:26:53.591Z" agent="Mozilla/5.0 (Macintosh; Intel Mac OS X 10_15_7) AppleWebKit/537.36 (KHTML, like Gecko) Chrome/126.0.0.0 Safari/537.36" etag="C89LicEKM_gv68_cQc0k" version="24.6.4" type="github">
  <diagram name="Page-1" id="KyM4VuKLl8OZuCV9hQgn">
    <mxGraphModel dx="1434" dy="761" grid="1" gridSize="10" guides="1" tooltips="1" connect="1" arrows="1" fold="1" page="1" pageScale="1" pageWidth="850" pageHeight="1100" math="0" shadow="0">
      <root>
        <mxCell id="0" />
        <mxCell id="1" parent="0" />
        <mxCell id="iRAi5FLCxRxBBsUDoP1y-6" value="" style="edgeStyle=orthogonalEdgeStyle;rounded=0;orthogonalLoop=1;jettySize=auto;html=1;" edge="1" parent="1" source="iRAi5FLCxRxBBsUDoP1y-1" target="iRAi5FLCxRxBBsUDoP1y-4">
          <mxGeometry relative="1" as="geometry" />
        </mxCell>
        <mxCell id="iRAi5FLCxRxBBsUDoP1y-9" value="inner" style="edgeLabel;html=1;align=center;verticalAlign=middle;resizable=0;points=[];" vertex="1" connectable="0" parent="iRAi5FLCxRxBBsUDoP1y-6">
          <mxGeometry x="-0.125" relative="1" as="geometry">
            <mxPoint as="offset" />
          </mxGeometry>
        </mxCell>
        <mxCell id="iRAi5FLCxRxBBsUDoP1y-7" value="" style="edgeStyle=orthogonalEdgeStyle;rounded=0;orthogonalLoop=1;jettySize=auto;html=1;" edge="1" parent="1" source="iRAi5FLCxRxBBsUDoP1y-1" target="iRAi5FLCxRxBBsUDoP1y-5">
          <mxGeometry relative="1" as="geometry" />
        </mxCell>
        <mxCell id="iRAi5FLCxRxBBsUDoP1y-8" value="outer" style="edgeLabel;html=1;align=center;verticalAlign=middle;resizable=0;points=[];" vertex="1" connectable="0" parent="iRAi5FLCxRxBBsUDoP1y-7">
          <mxGeometry y="-2" relative="1" as="geometry">
            <mxPoint as="offset" />
          </mxGeometry>
        </mxCell>
        <mxCell id="iRAi5FLCxRxBBsUDoP1y-1" value="&lt;div class=&quot;lake-content&quot;&gt;&lt;font color=&quot;#1c1e21&quot;&gt;CombinedModifier&lt;/font&gt;&lt;/div&gt;" style="rounded=1;whiteSpace=wrap;html=1;fillColor=#dae8fc;strokeColor=#6c8ebf;" vertex="1" parent="1">
          <mxGeometry x="320" y="220" width="120" height="60" as="geometry" />
        </mxCell>
        <mxCell id="iRAi5FLCxRxBBsUDoP1y-2" value="" style="shape=flexArrow;endArrow=classic;html=1;rounded=0;fillColor=#f8cecc;strokeColor=#b85450;" edge="1" parent="1">
          <mxGeometry width="50" height="50" relative="1" as="geometry">
            <mxPoint x="220" y="249.5" as="sourcePoint" />
            <mxPoint x="300" y="249.5" as="targetPoint" />
          </mxGeometry>
        </mxCell>
        <mxCell id="iRAi5FLCxRxBBsUDoP1y-3" value="当前Modifier" style="text;html=1;align=center;verticalAlign=middle;resizable=0;points=[];autosize=1;strokeColor=none;fillColor=none;" vertex="1" parent="1">
          <mxGeometry x="130" y="235" width="90" height="30" as="geometry" />
        </mxCell>
        <mxCell id="iRAi5FLCxRxBBsUDoP1y-4" value="&lt;div class=&quot;lake-content&quot;&gt;&lt;span style=&quot;color: rgb(28, 30, 33)&quot; class=&quot;ne-text&quot;&gt;BackgroudElement&lt;/span&gt;&lt;/div&gt;" style="rounded=1;whiteSpace=wrap;html=1;fillColor=#dae8fc;strokeColor=#6c8ebf;" vertex="1" parent="1">
          <mxGeometry x="520" y="220" width="120" height="60" as="geometry" />
        </mxCell>
        <mxCell id="iRAi5FLCxRxBBsUDoP1y-5" value="&lt;div class=&quot;lake-content&quot;&gt;&lt;span style=&quot;color: rgb(28, 30, 33)&quot; class=&quot;ne-text&quot;&gt;SizeElement&lt;/span&gt;&lt;/div&gt;" style="rounded=1;whiteSpace=wrap;html=1;fillColor=#dae8fc;strokeColor=#6c8ebf;" vertex="1" parent="1">
          <mxGeometry x="320" y="100" width="120" height="60" as="geometry" />
        </mxCell>
      </root>
    </mxGraphModel>
  </diagram>
</mxfile>
